<?xml version="1.0" encoding="UTF-8"?>
<svg width="426px" height="97px" viewBox="0 0 426 97" version="1.1" xmlns="http://www.w3.org/2000/svg" xmlns:xlink="http://www.w3.org/1999/xlink">
    <!-- Generator: Sketch 41.2 (35397) - http://www.bohemiancoding.com/sketch -->
    <title>meiko_logo</title>
    <desc>Created with Sketch.</desc>
    <defs></defs>
    <g id="misc" stroke="none" stroke-width="1" fill="none" fill-rule="evenodd">
        <g id="Artboard-Copy" transform="translate(-59.000000, -57.000000)" fill="#174115">
            <path d="M173.215788,59.0741366 L139.199948,59.0741366 L116.107894,107.194105 L93.01584,59.0741366 L59,59.0741366 L59,151.718904 L88.8675668,151.718904 L88.8675668,110.097897 L108.779278,151.718904 L123.43651,151.718904 L143.348221,110.097897 L143.348221,151.718904 L173.215788,151.718904 L173.215788,59.0741366 Z M256.76201,126.690989 L211.822384,126.690989 L211.822384,116.458582 L252.337185,116.458582 L252.337185,94.3344586 L211.822384,94.3344586 L211.822384,84.1020514 L256.070631,84.1020514 L256.070631,59.0741366 L181.263438,59.0741366 L181.263438,151.718904 L256.76201,151.718904 L256.76201,126.690989 Z M294.262399,151.718904 L294.262399,59.0741366 L263.703454,59.0741366 L263.703454,151.718904 L294.262399,151.718904 Z M397.443781,151.718904 L362.045183,105.673072 L394.954817,59.0741366 L359.417943,59.0741366 L335.772786,92.260322 L332.868995,92.260322 L332.868995,59.0741366 L302.310049,59.0741366 L302.310049,151.718904 L332.868995,151.718904 L332.868995,121.298234 L337.017268,121.298234 L358.588289,151.718904 L397.443781,151.718904 Z M384.058686,105.39652 C384.058686,132.498572 406.18281,153.793041 434.529343,153.793041 C462.875876,153.793041 485,132.498572 485,105.39652 C485,78.294469 462.875876,57 434.529343,57 C406.18281,57 384.058686,78.294469 384.058686,105.39652 Z M414.755908,105.39652 C414.755908,93.3665281 422.775902,84.1020514 434.529343,84.1020514 C446.282784,84.1020514 454.302779,93.3665281 454.302779,105.39652 C454.302779,117.426513 446.282784,126.690989 434.529343,126.690989 C422.775902,126.690989 414.755908,117.426513 414.755908,105.39652 Z" id="meiko_logo"></path>
        </g>
    </g>
</svg>