<svg width="426" height="97" viewBox="0 0 426 97" xmlns="http://www.w3.org/2000/svg"><title>meiko_logo</title><path d="M114.216 2.074H80.2l-23.092 48.12-23.092-48.12H0V94.72h29.868V53.098l19.911 41.62h14.658l19.911-41.62v41.62h29.868V2.075zm83.546 67.617h-44.94V59.459h40.515V37.334h-40.515V27.102h44.249V2.074h-74.808V94.72h75.499V69.69zm37.5 25.028V2.074h-30.559V94.72h30.56zm103.182 0l-35.399-46.046 32.91-46.599h-35.537L276.773 35.26h-2.904V2.074H243.31V94.72h30.559v-30.42h4.148l21.571 30.42h38.856zm-13.385-46.322c0 27.102 22.124 48.396 50.47 48.396 28.347 0 50.471-21.294 50.471-48.396C426 21.294 403.876 0 375.53 0c-28.347 0-50.471 21.294-50.471 48.397zm30.697 0c0-12.03 8.02-21.295 19.773-21.295 11.754 0 19.774 9.265 19.774 21.295 0 12.03-8.02 21.294-19.774 21.294-11.753 0-19.773-9.264-19.773-21.294z" fill="#292929" fill-rule="evenodd"/></svg>